<svg xmlns="http://www.w3.org/2000/svg" width="1254" height="836" viewBox="0 0 1254 836">
<g>
<path d="M 660.46 626.87 L 658.61 634.00 L 645.56 633.87 C632.39,633.74 621.04,632.78 616.88,631.46 C615.03,630.88 616.25,630.15 623.56,627.49 C636.08,622.93 640.00,621.13 640.00,619.94 C640.00,619.37 638.97,617.88 637.70,616.61 C635.73,614.64 634.05,614.24 625.72,613.74 C615.18,613.11 609.13,611.01 601.03,605.14 C594.80,600.63 588.12,600.69 581.36,605.34 C576.35,608.78 571.62,614.58 572.57,616.12 C572.87,616.60 575.35,617.96 578.09,619.13 C585.82,622.46 583.28,622.30 575.02,618.94 C566.23,615.36 552.47,607.09 546.67,601.90 C542.60,598.24 542.54,598.09 544.00,595.39 C545.39,592.85 553.34,585.56 560.50,580.28 L 563.50 578.06 L 554.50 578.02 C531.17,577.92 514.95,571.92 502.23,558.66 C494.79,550.92 490.61,542.65 488.44,531.42 C486.21,519.86 488.16,508.59 492.83,506.09 C493.96,505.49 495.59,502.71 496.55,499.76 C500.02,489.17 504.65,482.00 508.03,482.00 C508.96,482.00 511.41,483.15 513.48,484.55 C515.54,485.95 517.33,486.96 517.44,486.80 C517.55,486.63 518.42,484.39 519.38,481.82 C520.33,479.25 522.71,475.04 524.67,472.48 C527.87,468.29 528.58,467.85 531.62,468.20 C534.28,468.51 535.12,468.19 535.60,466.67 C535.94,465.62 538.61,462.14 541.54,458.96 C548.01,451.92 549.46,449.23 551.12,441.20 C552.72,433.46 551.16,420.83 547.88,415.00 C545.35,410.50 538.52,405.25 534.02,404.35 C532.26,404.00 527.66,404.49 523.51,405.46 C517.33,406.92 515.52,407.00 512.32,405.96 C508.16,404.61 503.97,402.02 499.89,398.28 L 497.27 395.89 L 496.62 399.13 C495.70,403.73 493.29,406.00 489.30,406.00 C486.64,406.00 484.83,404.99 480.87,401.28 C476.00,396.73 475.61,396.56 469.66,396.53 C457.92,396.47 448.81,389.28 441.96,374.65 C439.86,370.17 436.72,365.15 435.00,363.50 C430.60,359.29 425.69,351.55 422.95,344.50 C420.87,339.15 420.61,336.87 420.64,323.50 C420.66,310.34 420.99,307.28 423.37,298.57 C434.86,256.52 464.95,226.62 516.00,206.53 C541.66,196.44 586.85,188.86 613.23,190.24 C620.40,190.62 622.71,190.36 626.23,188.76 C645.30,180.09 657.24,177.08 675.58,176.31 C696.79,175.42 712.97,178.50 729.00,186.47 C732.58,188.25 738.28,190.23 741.68,190.89 C750.71,192.62 767.66,198.31 775.86,202.36 C786.93,207.83 793.80,212.76 802.68,221.58 C818.37,237.18 826.77,253.56 833.98,282.61 C834.54,284.86 836.51,288.69 838.35,291.11 C849.48,305.68 849.89,320.29 839.47,331.47 C833.94,337.41 833.80,339.77 838.44,348.80 C844.27,360.16 844.34,364.60 838.72,368.03 C834.85,370.39 830.94,370.54 826.95,368.47 C822.35,366.09 823.48,368.46 829.21,373.19 C844.10,385.52 845.76,388.88 840.08,395.23 C837.43,398.21 836.54,398.54 830.03,399.00 L 822.90 399.50 L 828.93 408.90 C835.47,419.09 836.59,422.58 835.55,429.53 C834.64,435.62 829.44,441.00 821.71,443.86 C818.53,445.04 815.24,446.00 814.40,446.00 C813.33,446.00 813.93,447.30 816.37,450.28 C822.53,457.79 823.58,464.11 819.91,471.68 C816.04,479.68 808.29,482.30 801.23,478.00 C799.43,476.90 797.73,476.00 797.47,476.00 C796.60,476.00 798.23,487.41 799.56,490.70 C800.52,493.08 802.40,494.68 806.89,496.94 C813.67,500.37 815.00,502.15 815.00,507.80 C815.00,515.51 808.72,520.00 797.91,520.00 L 791.75 520.00 L 792.39 523.20 C793.27,527.61 795.61,530.89 799.26,532.85 C800.96,533.76 803.85,535.85 805.68,537.50 C815.00,545.91 807.24,555.05 792.24,553.33 C787.02,552.73 786.96,552.75 781.74,557.68 C778.86,560.40 775.60,563.15 774.50,563.80 C772.78,564.80 772.71,565.10 774.00,565.97 C774.83,566.52 776.45,566.98 777.60,566.98 C781.38,567.01 786.47,571.25 786.80,574.64 C787.34,580.13 779.45,587.17 770.05,589.57 C766.36,590.52 765.56,591.12 765.79,592.75 C766.00,594.19 764.61,595.85 760.92,598.56 C756.52,601.79 755.08,602.32 751.13,602.15 C747.94,602.01 742.85,603.19 734.75,605.94 C715.66,612.45 711.47,613.33 699.50,613.41 C690.58,613.47 687.14,613.05 681.30,611.16 C675.00,609.12 673.77,609.00 671.35,610.17 C666.88,612.33 662.49,619.06 660.46,626.87 ZM 649.00 360.43 C689.97,365.67 723.61,357.62 766.14,332.37 C772.20,328.77 779.04,324.98 781.33,323.94 C786.50,321.59 797.56,321.41 807.50,323.52 C816.24,325.37 819.16,325.38 823.51,323.56 C827.89,321.73 830.99,316.70 831.00,311.43 C831.00,306.30 828.54,297.88 826.17,294.96 C824.51,292.91 824.06,292.82 820.64,293.95 C817.45,295.01 816.55,294.94 814.33,293.48 C811.75,291.79 811.74,291.71 812.59,283.64 C814.19,268.39 813.82,264.19 810.24,256.63 C797.64,230.01 776.70,212.11 751.63,206.54 C748.76,205.90 748.76,205.91 753.18,211.20 C760.97,220.56 766.92,231.42 768.47,239.14 C769.03,241.95 768.27,241.18 763.84,234.50 C751.29,215.55 732.02,199.79 714.05,193.77 C704.70,190.64 704.11,190.57 686.00,190.53 C663.00,190.49 656.01,192.04 635.00,201.79 L 626.50 205.73 L 602.00 206.27 C558.87,207.22 533.14,212.87 502.95,228.03 C486.59,236.23 472.56,246.71 461.38,259.07 C449.80,271.88 441.16,288.91 437.38,306.38 C434.59,319.27 435.46,347.00 438.66,347.00 C438.93,347.00 443.74,344.74 449.33,341.99 C465.87,333.83 471.86,332.62 496.00,332.56 C524.01,332.48 536.24,334.50 589.25,347.96 C616.01,354.75 634.06,358.52 649.00,360.43 ZM 549.50 566.30 C573.68,569.51 600.29,561.02 643.13,536.44 C681.79,514.24 703.27,496.56 727.02,467.36 C745.35,444.83 752.51,438.93 765.69,435.49 C772.55,433.71 778.36,433.62 789.89,435.13 C796.51,435.99 799.53,435.97 802.96,435.03 C811.83,432.60 818.04,422.88 816.57,413.72 C816.23,411.59 814.65,405.23 813.07,399.58 C811.48,393.93 809.63,384.89 808.95,379.49 C807.49,367.89 808.22,347.08 810.37,339.01 C811.45,334.94 811.53,333.33 810.69,332.81 C808.29,331.32 796.03,329.75 790.47,330.21 C783.24,330.81 781.53,332.66 780.68,340.82 C778.64,360.30 763.77,377.30 754.99,370.19 C752.81,368.43 752.48,367.27 752.16,360.10 C751.75,351.09 751.61,350.97 745.07,353.59 C741.41,355.05 741.05,355.54 740.48,359.84 C736.99,386.39 727.17,409.87 711.14,430.00 C700.51,443.36 665.69,476.38 646.50,491.31 C609.41,520.17 569.63,535.63 537.57,533.66 C526.92,533.01 514.85,530.35 507.29,527.01 C504.79,525.91 502.35,525.00 501.87,525.00 C500.41,525.00 500.89,528.62 503.13,534.61 C508.35,548.56 530.66,563.80 549.50,566.30 ZM 705.13 344.57 C680.67,348.93 656.15,340.46 638.08,321.39 C625.48,308.10 620.30,296.12 619.33,278.00 C618.87,269.40 619.14,265.92 620.86,258.77 C626.98,233.24 645.88,214.03 671.41,207.39 C679.54,205.27 696.41,205.32 705.50,207.49 C716.90,210.21 727.15,216.20 737.09,225.96 C750.46,239.10 756.08,249.25 758.95,265.43 C765.41,301.92 740.73,338.22 705.13,344.57 ZM 683.00 333.04 C711.26,337.03 738.48,319.29 745.51,292.30 C747.43,284.93 747.42,271.06 745.48,263.46 C740.18,242.60 723.85,225.70 703.07,219.60 C696.15,217.56 682.22,217.53 674.54,219.53 C653.99,224.88 636.22,244.66 632.96,265.81 C631.52,275.09 633.07,287.84 636.67,296.42 C644.82,315.88 662.94,330.20 683.00,333.04 ZM 571.96 496.97 C575.12,500.34 575.25,500.38 576.68,498.47 C577.49,497.39 579.08,494.70 580.20,492.50 C582.98,487.07 588.94,479.00 590.17,479.00 C590.72,479.00 593.50,481.44 596.34,484.43 C602.04,490.43 606.54,492.35 608.52,489.64 C609.19,488.72 610.23,484.16 610.83,479.49 C611.43,474.82 612.41,470.10 613.00,469.00 C614.55,466.10 618.04,466.51 625.48,470.45 C633.53,474.72 638.01,475.65 642.20,473.92 C647.67,471.65 658.81,462.02 680.00,441.26 L 700.50 421.17 L 696.60 419.50 C691.12,417.18 678.99,415.00 671.50,415.00 C650.52,415.00 628.63,425.79 613.54,443.58 C610.49,447.17 608.00,449.82 608.00,449.47 C608.00,449.12 609.58,445.63 611.50,441.72 C613.43,437.81 614.64,434.24 614.19,433.79 C612.81,432.41 597.68,435.62 591.94,438.53 C585.31,441.88 575.46,451.70 571.12,459.29 C569.36,462.37 567.23,468.16 566.40,472.14 C564.16,482.92 565.84,490.44 571.96,496.97 ZM 710.28 562.35 C724.75,567.47 761.34,560.09 773.79,549.54 C780.38,543.96 783.48,533.34 780.80,525.50 C779.51,521.71 779.24,521.51 775.65,521.73 C773.57,521.85 768.72,522.89 764.89,524.03 C755.69,526.77 741.53,528.31 731.00,527.71 C720.06,527.09 714.30,528.31 709.54,532.23 C704.74,536.19 701.02,544.00 701.01,550.17 C701.00,556.00 704.19,560.19 710.28,562.35 ZM 692.28 601.03 C696.89,602.13 698.58,602.12 710.14,600.97 C741.05,597.89 763.27,586.02 761.83,573.36 C761.51,570.57 761.37,570.51 756.00,570.72 C752.97,570.84 746.00,571.73 740.50,572.69 C726.90,575.06 709.57,575.04 700.34,572.64 C691.40,570.31 688.38,571.10 685.28,576.58 C682.37,581.71 681.44,588.20 682.91,593.10 C684.17,597.30 687.13,599.81 692.28,601.03 ZM 738.00 517.13 C743.45,518.32 760.94,517.38 766.65,515.59 C773.63,513.41 780.80,508.40 784.47,503.16 C787.21,499.24 787.50,498.09 787.50,491.07 C787.50,490.68 787.50,490.30 787.50,489.94 C787.51,485.97 787.52,483.58 786.35,482.18 C784.58,480.06 780.14,480.17 769.02,480.44 C768.34,480.46 767.64,480.48 766.92,480.49 C757.07,480.73 747.21,481.41 745.00,482.00 C736.91,484.18 730.99,491.90 729.47,502.24 C728.05,511.96 730.01,515.40 738.00,517.13 ZM 701.78 296.85 C689.46,302.78 675.07,297.79 669.40,285.62 C660.61,266.74 678.52,247.38 698.25,254.43 C717.18,261.18 719.44,288.35 701.78,296.85 ZM 607.72 593.35 C615.68,596.12 628.24,595.01 640.50,590.46 C646.00,588.41 653.08,585.84 656.23,584.74 C659.38,583.64 661.68,582.29 661.35,581.75 C661.01,581.21 658.77,579.90 656.36,578.83 C652.55,577.15 650.56,576.98 641.24,577.52 C631.02,578.12 630.07,578.00 621.56,575.08 C611.05,571.46 609.21,571.34 604.03,573.99 C599.57,576.26 597.00,579.44 597.00,582.69 C597.00,586.15 602.36,591.49 607.72,593.35 ZM 506.28 380.03 C509.59,382.24 512.46,383.88 512.66,383.67 C512.86,383.47 513.49,377.27 514.04,369.90 C514.60,362.53 515.69,353.80 516.45,350.51 C517.22,347.21 517.69,344.36 517.50,344.17 C516.75,343.42 503.08,342.06 495.94,342.03 C485.95,341.99 484.46,343.05 485.36,349.58 C486.90,360.84 494.83,372.38 506.28,380.03 ZM 743.52 469.00 L 742.91 471.50 L 757.71 471.72 C765.84,471.83 774.19,471.48 776.26,470.92 C784.09,468.83 790.25,460.13 788.59,453.52 C787.03,447.31 770.31,444.37 760.91,448.65 C753.54,452.01 745.33,461.62 743.52,469.00 ZM 541.36 380.61 C544.68,383.02 547.75,385.00 548.18,385.00 C549.05,385.00 549.10,384.81 552.02,369.59 C553.16,363.59 554.76,357.13 555.55,355.22 C556.35,353.32 557.00,351.60 557.00,351.42 C557.00,349.73 526.03,344.25 523.90,345.56 C522.26,346.58 523.51,355.63 526.12,361.60 C529.43,369.16 534.74,375.79 541.36,380.61 ZM 688.00 292.05 C698.16,293.99 705.99,287.39 706.00,276.90 C706.00,265.03 692.17,256.94 682.24,262.99 C670.17,270.35 673.94,289.38 688.00,292.05 ZM 462.78 380.98 C465.29,382.64 467.85,384.00 468.47,384.00 C469.12,384.00 470.11,380.50 470.80,375.75 C471.45,371.21 473.35,362.77 475.00,357.00 C476.66,351.23 477.80,345.94 477.54,345.25 C476.83,343.39 470.08,343.73 462.86,345.98 C454.49,348.59 450.20,351.34 449.39,354.60 C447.55,361.91 454.42,375.44 462.78,380.98 ZM 581.95 386.17 C584.39,387.73 586.73,388.67 587.15,388.25 C587.56,387.84 589.42,381.12 591.29,373.32 L 594.68 359.13 L 586.70 356.98 C575.36,353.92 567.52,352.58 565.49,353.37 C564.01,353.93 563.82,354.86 564.33,359.10 C565.54,369.36 572.61,380.22 581.95,386.17 ZM 536.47 257.95 C522.92,263.59 517.23,263.02 518.48,256.15 C519.98,247.93 528.23,238.45 535.86,236.16 C537.99,235.52 542.44,235.00 545.76,235.00 C557.60,235.00 559.05,240.43 549.63,249.57 C545.93,253.17 542.10,255.60 536.47,257.95 ZM 703.38 323.79 C698.69,326.29 681.40,325.80 678.68,323.08 C677.70,322.10 679.17,304.50 680.34,303.33 C680.66,303.01 683.05,303.28 685.64,303.93 C688.50,304.65 692.80,304.86 696.54,304.46 L 696.97 304.41 C699.83,304.10 701.47,303.93 702.48,304.64 C703.89,305.64 704.07,308.38 704.61,314.92 C705.20,321.99 705.08,322.89 703.38,323.79 ZM 729.32 265.61 C725.03,267.48 721.04,269.00 720.46,269.00 C719.88,269.00 718.41,266.97 717.20,264.48 C716.00,262.00 713.14,257.94 710.86,255.46 C708.58,252.99 706.89,250.80 707.10,250.62 C707.32,250.43 710.86,247.89 714.97,244.98 L 722.43 239.70 L 727.54 245.32 C732.67,250.96 738.67,260.66 737.65,261.68 C737.36,261.98 733.60,263.75 729.32,265.61 ZM 614.46 386.62 C617.22,388.48 619.74,390.00 620.07,390.00 C620.86,390.00 627.00,369.76 627.00,367.17 C627.00,365.52 626.02,364.95 621.75,364.11 C601.73,360.18 600.97,360.20 601.04,364.72 C601.16,372.11 606.95,381.57 614.46,386.62 ZM 662.60 265.75 C661.55,268.09 660.20,269.97 659.60,269.94 C657.26,269.81 644.00,262.50 644.00,261.33 C644.00,259.48 657.33,240.01 658.60,240.00 C660.00,240.00 672.96,249.24 672.98,250.26 C672.99,250.68 671.09,253.38 668.75,256.26 C666.41,259.14 663.64,263.41 662.60,265.75 ZM 581.34 515.44 C581.67,516.30 582.81,517.00 583.87,517.00 C586.86,517.00 602.96,509.27 603.63,507.51 C604.30,505.78 601.18,500.87 595.04,494.00 C591.67,490.23 590.73,489.68 589.26,490.60 C584.82,493.37 579.40,510.39 581.34,515.44 ZM 530.50 524.49 C532.74,525.31 537.14,525.86 540.50,525.73 L 546.50 525.50 L 546.26 521.57 C545.85,514.89 537.22,499.00 534.00,499.00 C531.73,499.00 524.03,522.88 526.25,523.02 C526.39,523.02 528.30,523.69 530.50,524.49 ZM 555.04 523.55 C556.39,525.17 559.94,525.00 568.13,522.91 C574.27,521.35 574.76,519.83 571.41,512.72 C568.06,505.59 562.57,499.00 559.99,499.00 C557.43,499.00 554.83,506.11 554.24,514.74 C553.89,519.85 554.12,522.44 555.04,523.55 ZM 647.00 388.00 C650.46,389.80 650.51,389.80 651.63,387.66 C652.25,386.47 653.57,381.98 654.58,377.68 C656.15,370.94 656.20,369.74 654.96,368.97 C653.48,368.06 646.93,367.14 639.00,366.73 C634.75,366.51 634.48,366.65 634.18,369.31 C633.55,374.76 640.21,384.47 647.00,388.00 ZM 615.68 500.34 C616.80,501.46 620.19,500.06 625.93,496.11 C632.94,491.28 633.92,489.74 631.99,486.61 C629.94,483.29 620.91,476.00 618.85,476.00 C617.64,476.00 616.86,477.41 616.08,481.05 C614.88,486.64 614.62,499.28 615.68,500.34 ZM 514.34 520.31 C516.63,521.09 518.84,521.54 519.25,521.31 C520.87,520.39 519.88,510.33 517.65,504.89 C515.19,498.92 511.40,493.00 510.04,493.00 C508.56,493.00 505.91,501.16 505.31,507.57 C504.76,513.47 504.89,513.99 507.45,516.37 C508.95,517.76 512.05,519.53 514.34,520.31 ZM 484.17 282.25 C477.87,288.76 476.58,288.56 477.25,281.18 C477.90,273.97 481.08,267.53 484.96,265.52 C495.57,260.03 495.06,271.00 484.17,282.25 ZM 528.34 491.35 C527.85,493.02 528.11,492.98 530.83,490.97 C532.65,489.62 534.53,488.99 535.55,489.38 C536.91,489.90 537.13,489.59 536.65,487.76 C536.32,486.52 535.44,482.80 534.69,479.50 L 533.33 473.50 L 532.22 477.00 C531.61,478.92 530.61,482.52 530.00,485.00 C529.38,487.48 528.64,490.33 528.34,491.35 ZM 670.13 567.11 L 674.29 574.16 L 676.96 569.33 C678.43,566.67 679.50,564.32 679.34,564.11 C679.18,563.89 677.04,564.48 674.59,565.41 Z" fill="rgb(14,41,4)"/>
<path d="M 674.00 671.18 C664.37,672.91 657.54,673.29 632.00,673.53 C615.22,673.69 600.38,673.62 599.00,673.38 C597.62,673.14 590.65,672.01 583.50,670.87 C495.66,656.90 419.22,601.23 379.75,522.50 C367.54,498.14 357.64,466.24 353.83,439.00 C351.77,424.26 352.05,376.46 354.27,362.50 C360.94,320.74 374.47,285.62 396.93,251.80 C423.45,211.86 463.43,177.22 506.45,156.93 C552.06,135.42 601.90,126.81 654.31,131.40 C713.03,136.54 764.74,157.91 809.59,195.59 C850.78,230.20 881.27,277.38 896.96,330.76 C907.95,368.19 910.23,415.61 902.89,454.50 C895.71,492.58 877.61,532.77 852.83,565.68 C838.29,584.99 814.58,607.73 793.36,622.72 C757.98,647.70 720.84,662.78 674.00,671.18 ZM 660.46 626.87 C660.92,625.10 661.50,623.39 662.18,621.77 C660.54,625.96 659.61,630.55 660.33,632.41 C660.50,632.87 660.58,633.22 660.78,633.46 C661.38,634.16 663.06,633.95 671.52,632.86 C672.30,632.76 673.14,632.65 674.04,632.54 C692.13,630.23 708.22,625.88 724.06,619.01 C735.24,614.17 754.01,603.83 753.41,602.86 C753.22,602.54 752.85,602.31 752.32,602.17 C755.42,602.17 756.99,601.44 760.92,598.56 C764.61,595.85 766.00,594.19 765.79,592.75 C765.56,591.12 766.36,590.52 770.05,589.57 C779.45,587.17 787.34,580.13 786.80,574.64 C786.47,571.25 781.38,567.01 777.60,566.98 C776.45,566.98 774.83,566.52 774.00,565.97 C772.71,565.10 772.78,564.80 774.50,563.80 C775.60,563.15 778.86,560.40 781.74,557.68 C786.96,552.75 787.02,552.73 792.24,553.33 C807.24,555.05 815.00,545.91 805.68,537.50 C803.85,535.85 800.96,533.76 799.26,532.85 C795.61,530.89 793.27,527.61 792.39,523.20 L 791.75 520.00 L 797.91 520.00 C808.72,520.00 815.00,515.51 815.00,507.80 C815.00,502.15 813.67,500.37 806.89,496.94 C802.40,494.68 800.52,493.08 799.56,490.70 C798.23,487.41 796.60,476.00 797.47,476.00 C797.73,476.00 799.43,476.90 801.23,478.00 C808.29,482.30 816.04,479.68 819.91,471.68 C823.58,464.11 822.53,457.79 816.37,450.28 C813.93,447.30 813.33,446.00 814.40,446.00 C815.24,446.00 818.53,445.04 821.71,443.86 C829.44,441.00 834.64,435.62 835.55,429.53 C836.59,422.58 835.47,419.09 828.93,408.90 L 822.90 399.50 L 830.03 399.00 C836.54,398.54 837.43,398.21 840.08,395.23 C845.76,388.88 844.10,385.52 829.21,373.19 C823.48,368.46 822.35,366.09 826.95,368.47 C830.94,370.54 834.85,370.39 838.72,368.03 C844.34,364.60 844.27,360.16 838.44,348.80 C833.80,339.77 833.94,337.41 839.47,331.47 C849.89,320.29 849.48,305.68 838.35,291.11 C836.51,288.69 834.54,284.86 833.98,282.61 C826.77,253.56 818.37,237.18 802.68,221.58 C793.80,212.76 786.93,207.83 775.86,202.36 C767.66,198.31 750.71,192.62 741.68,190.89 C738.28,190.23 732.58,188.25 729.00,186.47 C712.97,178.50 696.79,175.42 675.58,176.31 C657.24,177.08 645.30,180.09 626.23,188.76 C622.71,190.36 620.40,190.62 613.23,190.24 C586.85,188.86 541.66,196.44 516.00,206.53 C464.95,226.62 434.86,256.52 423.37,298.57 C420.99,307.28 420.66,310.34 420.64,323.50 C420.61,336.87 420.87,339.15 422.95,344.50 C425.69,351.55 430.60,359.29 435.00,363.50 C436.72,365.15 439.86,370.17 441.96,374.65 C448.81,389.28 457.92,396.47 469.66,396.53 C475.61,396.56 476.00,396.73 480.87,401.28 C484.83,404.99 486.64,406.00 489.30,406.00 C493.29,406.00 495.70,403.73 496.62,399.13 L 497.27 395.89 L 499.89 398.28 C503.97,402.02 508.16,404.61 512.32,405.96 C515.52,407.00 517.33,406.92 523.51,405.46 C527.66,404.49 532.26,404.00 534.02,404.35 C538.52,405.25 545.35,410.50 547.88,415.00 C551.16,420.83 552.72,433.46 551.12,441.20 C549.46,449.23 548.01,451.92 541.54,458.96 C538.61,462.14 535.94,465.62 535.60,466.67 C535.12,468.19 534.28,468.51 531.62,468.20 C528.58,467.85 527.87,468.29 524.67,472.48 C522.71,475.04 520.33,479.25 519.38,481.82 C518.42,484.39 517.55,486.63 517.44,486.80 C517.33,486.96 515.54,485.95 513.48,484.55 C511.41,483.15 508.96,482.00 508.03,482.00 C504.65,482.00 500.02,489.17 496.55,499.76 C495.59,502.71 493.96,505.49 492.83,506.09 C488.16,508.59 486.21,519.86 488.44,531.42 C490.61,542.65 494.79,550.92 502.23,558.66 C514.95,571.92 531.17,577.92 554.50,578.02 L 563.50 578.06 L 560.50 580.28 C553.34,585.56 545.39,592.85 544.00,595.39 C542.54,598.09 542.60,598.24 546.67,601.90 C552.47,607.09 566.23,615.36 575.02,618.94 C583.28,622.30 585.82,622.46 578.09,619.13 C575.35,617.96 572.87,616.60 572.57,616.12 C572.57,616.11 572.56,616.09 572.55,616.08 C572.87,616.52 574.31,617.13 575.81,617.46 C577.34,617.79 581.16,619.61 584.29,621.50 C589.06,624.37 600.28,628.46 608.50,630.31 C611.04,630.88 615.95,630.01 622.50,627.88 C616.14,630.22 615.13,630.91 616.88,631.46 C621.04,632.78 632.39,633.74 645.56,633.87 L 658.61 634.00 ZM 683.00 333.04 C662.94,330.20 644.82,315.88 636.67,296.42 C633.07,287.84 631.52,275.09 632.96,265.81 C636.22,244.66 653.99,224.88 674.54,219.53 C682.22,217.53 696.15,217.56 703.07,219.60 C723.85,225.70 740.18,242.60 745.48,263.46 C747.42,271.06 747.43,284.93 745.51,292.30 C738.48,319.29 711.26,337.03 683.00,333.04 ZM 701.78 296.85 C719.44,288.35 717.18,261.18 698.25,254.43 C678.52,247.38 660.61,266.74 669.40,285.62 C675.07,297.79 689.46,302.78 701.78,296.85 ZM 688.00 292.05 C673.94,289.38 670.17,270.35 682.24,262.99 C692.17,256.94 706.00,265.03 706.00,276.90 C705.99,287.39 698.16,293.99 688.00,292.05 ZM 703.38 323.79 C705.08,322.89 705.20,321.99 704.61,314.92 C704.07,308.38 703.89,305.64 702.48,304.64 C701.47,303.93 699.83,304.10 696.97,304.41 L 696.54 304.46 C692.80,304.86 688.50,304.65 685.64,303.93 C683.05,303.28 680.66,303.01 680.34,303.33 C679.17,304.50 677.70,322.10 678.68,323.08 C681.40,325.80 698.69,326.29 703.38,323.79 ZM 729.32 265.61 C733.60,263.75 737.36,261.98 737.65,261.68 C738.67,260.66 732.67,250.96 727.54,245.32 L 722.43 239.70 L 714.97 244.98 C710.86,247.89 707.32,250.43 707.10,250.62 C706.89,250.80 708.58,252.99 710.86,255.46 C713.14,257.94 716.00,262.00 717.20,264.48 C718.41,266.97 719.88,269.00 720.46,269.00 C721.04,269.00 725.03,267.48 729.32,265.61 ZM 662.60 265.75 C663.64,263.41 666.41,259.14 668.75,256.26 C671.09,253.38 672.99,250.68 672.98,250.26 C672.96,249.24 660.00,240.00 658.60,240.00 C657.33,240.01 644.00,259.48 644.00,261.33 C644.00,262.50 657.26,269.81 659.60,269.94 C660.20,269.97 661.55,268.09 662.60,265.75 ZM 528.34 491.35 C528.64,490.33 529.38,487.48 530.00,485.00 C530.61,482.52 531.61,478.92 532.22,477.00 L 533.33 473.50 L 534.69 479.50 C535.44,482.80 536.32,486.52 536.65,487.76 C537.13,489.59 536.91,489.90 535.55,489.38 C534.53,488.99 532.65,489.62 530.83,490.97 C528.11,492.98 527.85,493.02 528.34,491.35 ZM 671.79 609.97 C673.94,609.02 675.39,609.25 681.30,611.16 C676.86,609.73 674.11,609.21 671.79,609.97 ZM 639.10 621.05 C639.83,620.44 640.00,619.83 639.65,619.05 C639.87,619.43 640.00,619.74 640.00,619.94 C640.00,620.26 639.73,620.61 639.10,621.05 ZM 744.15 603.11 C741.53,603.77 738.39,604.72 734.71,605.97 C727.30,608.48 722.15,610.16 717.91,611.26 C722.16,610.15 727.33,608.47 734.75,605.94 C738.49,604.67 741.58,603.74 744.15,603.11 Z" fill="rgb(89,161,41)"/>
<path d="M 571.96 496.97 C565.84,490.44 564.16,482.92 566.40,472.14 C567.23,468.16 569.36,462.37 571.12,459.29 C575.46,451.70 585.31,441.88 591.94,438.53 C597.68,435.62 612.81,432.41 614.19,433.79 C614.64,434.24 613.43,437.81 611.50,441.72 C609.58,445.63 608.00,449.12 608.00,449.47 C608.00,449.82 610.49,447.17 613.54,443.58 C628.63,425.79 650.52,415.00 671.50,415.00 C678.99,415.00 691.12,417.18 696.60,419.50 L 700.50 421.17 L 680.00 441.26 C658.81,462.02 647.67,471.65 642.20,473.92 C638.01,475.65 633.53,474.72 625.48,470.45 C618.04,466.51 614.55,466.10 613.00,469.00 C612.41,470.10 611.43,474.82 610.83,479.49 C610.23,484.16 609.19,488.72 608.52,489.64 C606.54,492.35 602.04,490.43 596.34,484.43 C593.50,481.44 590.72,479.00 590.17,479.00 C588.94,479.00 582.98,487.07 580.20,492.50 C579.08,494.70 577.49,497.39 576.68,498.47 C575.25,500.38 575.12,500.34 571.96,496.97 Z" fill="rgb(137,189,42)"/>
<path d="M 0.00 418.00 L 0.00 0.00 L 627.00 0.00 L 1254.00 0.00 L 1254.00 418.00 L 1254.00 836.00 L 627.00 836.00 L 0.00 836.00 L 0.00 418.00 ZM 674.00 671.18 C720.84,662.78 757.98,647.70 793.36,622.72 C814.58,607.73 838.29,584.99 852.83,565.68 C877.61,532.77 895.71,492.58 902.89,454.50 C910.23,415.61 907.95,368.19 896.96,330.76 C881.27,277.38 850.78,230.20 809.59,195.59 C764.74,157.91 713.03,136.54 654.31,131.40 C601.90,126.81 552.06,135.42 506.45,156.93 C463.43,177.22 423.45,211.86 396.93,251.80 C374.47,285.62 360.94,320.74 354.27,362.50 C352.05,376.46 351.77,424.26 353.83,439.00 C357.64,466.24 367.54,498.14 379.75,522.50 C419.22,601.23 495.66,656.90 583.50,670.87 C590.65,672.01 597.62,673.14 599.00,673.38 C600.38,673.62 615.22,673.69 632.00,673.53 C657.54,673.29 664.37,672.91 674.00,671.18 ZM 660.33 632.41 C659.22,629.51 662.07,620.06 665.37,615.73 C670.47,609.03 672.71,608.39 681.30,611.16 C687.14,613.05 690.58,613.47 699.50,613.41 C711.45,613.33 715.61,612.45 734.71,605.97 C746.03,602.13 752.31,601.08 753.41,602.86 C754.01,603.83 735.24,614.17 724.06,619.01 C708.22,625.88 692.13,630.23 674.04,632.54 C660.06,634.32 661.06,634.33 660.33,632.41 ZM 608.50 630.31 C600.28,628.46 589.06,624.37 584.29,621.50 C581.16,619.61 577.34,617.79 575.81,617.46 C574.28,617.12 572.80,616.49 572.53,616.05 C571.62,614.57 576.45,608.70 581.36,605.34 C588.12,600.69 594.80,600.63 601.03,605.14 C609.13,611.01 615.18,613.11 625.72,613.74 C634.05,614.24 635.73,614.64 637.70,616.61 C640.84,619.75 640.61,620.71 636.25,622.59 C622.87,628.38 612.60,631.24 608.50,630.31 ZM 692.28 601.03 C687.13,599.81 684.17,597.30 682.91,593.10 C681.44,588.20 682.37,581.71 685.28,576.58 C688.38,571.10 691.40,570.31 700.34,572.64 C709.57,575.04 726.90,575.06 740.50,572.69 C746.00,571.73 752.97,570.84 756.00,570.72 C761.37,570.51 761.51,570.57 761.83,573.36 C763.27,586.02 741.05,597.89 710.14,600.97 C698.58,602.12 696.89,602.13 692.28,601.03 ZM 607.72 593.35 C602.36,591.49 597.00,586.15 597.00,582.69 C597.00,579.44 599.57,576.26 604.03,573.99 C609.21,571.34 611.05,571.46 621.56,575.08 C630.07,578.00 631.02,578.12 641.24,577.52 C650.56,576.98 652.55,577.15 656.36,578.83 C658.77,579.90 661.01,581.21 661.35,581.75 C661.68,582.29 659.38,583.64 656.23,584.74 C653.08,585.84 646.00,588.41 640.50,590.46 C628.24,595.01 615.68,596.12 607.72,593.35 ZM 672.21 570.64 L 670.13 567.11 L 674.59 565.41 C677.04,564.48 679.18,563.89 679.34,564.11 C679.50,564.32 678.43,566.67 676.96,569.33 L 674.29 574.16 L 672.21 570.64 ZM 549.50 566.30 C530.66,563.80 508.35,548.56 503.13,534.61 C500.89,528.62 500.41,525.00 501.87,525.00 C502.35,525.00 504.79,525.91 507.29,527.01 C514.85,530.35 526.92,533.01 537.57,533.66 C569.63,535.63 609.41,520.17 646.50,491.31 C665.69,476.38 700.51,443.36 711.14,430.00 C727.17,409.87 736.99,386.39 740.48,359.84 C741.05,355.54 741.41,355.05 745.07,353.59 C751.61,350.97 751.75,351.09 752.16,360.10 C752.48,367.27 752.81,368.43 754.99,370.19 C763.77,377.30 778.64,360.30 780.68,340.82 C781.53,332.66 783.24,330.81 790.47,330.21 C796.03,329.75 808.29,331.32 810.69,332.81 C811.53,333.33 811.45,334.94 810.37,339.01 C808.22,347.08 807.49,367.89 808.95,379.49 C809.63,384.89 811.48,393.93 813.07,399.58 C814.65,405.23 816.23,411.59 816.57,413.72 C818.04,422.88 811.83,432.60 802.96,435.03 C799.53,435.97 796.51,435.99 789.89,435.13 C778.36,433.62 772.55,433.71 765.69,435.49 C752.51,438.93 745.35,444.83 727.02,467.36 C703.27,496.56 681.79,514.24 643.13,536.44 C600.29,561.02 573.68,569.51 549.50,566.30 ZM 710.28 562.35 C704.19,560.19 701.00,556.00 701.01,550.17 C701.02,544.00 704.74,536.19 709.54,532.23 C714.30,528.31 720.06,527.09 731.00,527.71 C741.53,528.31 755.69,526.77 764.89,524.03 C768.72,522.89 773.57,521.85 775.65,521.73 C779.24,521.51 779.51,521.71 780.80,525.50 C783.48,533.34 780.38,543.96 773.79,549.54 C761.34,560.09 724.75,567.47 710.28,562.35 ZM 530.50 524.49 C528.30,523.69 526.39,523.02 526.25,523.02 C524.03,522.88 531.73,499.00 534.00,499.00 C537.22,499.00 545.85,514.89 546.26,521.57 L 546.50 525.50 L 540.50 525.73 C537.14,525.86 532.74,525.31 530.50,524.49 ZM 555.04 523.55 C554.12,522.44 553.89,519.85 554.24,514.74 C554.83,506.11 557.43,499.00 559.99,499.00 C562.57,499.00 568.06,505.59 571.41,512.72 C574.76,519.83 574.27,521.35 568.13,522.91 C559.94,525.00 556.39,525.17 555.04,523.55 ZM 514.34 520.31 C512.05,519.53 508.95,517.76 507.45,516.37 C504.89,513.99 504.76,513.47 505.31,507.57 C505.91,501.16 508.56,493.00 510.04,493.00 C511.40,493.00 515.19,498.92 517.65,504.89 C519.88,510.33 520.87,520.39 519.25,521.31 C518.84,521.54 516.63,521.09 514.34,520.31 ZM 738.00 517.13 C730.01,515.40 728.05,511.96 729.47,502.24 C730.99,491.90 736.91,484.18 745.00,482.00 C747.21,481.41 757.07,480.73 766.92,480.49 C788.25,479.99 787.50,479.60 787.50,491.07 C787.50,498.09 787.21,499.24 784.47,503.16 C780.80,508.40 773.63,513.41 766.65,515.59 C760.94,517.38 743.45,518.32 738.00,517.13 ZM 581.34 515.44 C579.40,510.39 584.82,493.37 589.26,490.60 C590.73,489.68 591.67,490.23 595.04,494.00 C601.18,500.87 604.30,505.78 603.63,507.51 C602.96,509.27 586.86,517.00 583.87,517.00 C582.81,517.00 581.67,516.30 581.34,515.44 ZM 615.68 500.34 C614.62,499.28 614.88,486.64 616.08,481.05 C616.86,477.41 617.64,476.00 618.85,476.00 C620.91,476.00 629.94,483.29 631.99,486.61 C633.92,489.74 632.94,491.28 625.93,496.11 C620.19,500.06 616.80,501.46 615.68,500.34 ZM 743.52 469.00 C745.33,461.62 753.54,452.01 760.91,448.65 C770.31,444.37 787.03,447.31 788.59,453.52 C790.25,460.13 784.09,468.83 776.26,470.92 C774.19,471.48 765.84,471.83 757.71,471.72 L 742.91 471.50 L 743.52 469.00 ZM 614.46 386.62 C606.95,381.57 601.16,372.11 601.04,364.72 C600.97,360.20 601.73,360.18 621.75,364.11 C626.02,364.95 627.00,365.52 627.00,367.17 C627.00,369.76 620.86,390.00 620.07,390.00 C619.74,390.00 617.22,388.48 614.46,386.62 ZM 647.00 388.00 C640.21,384.47 633.55,374.76 634.18,369.31 C634.48,366.65 634.75,366.51 639.00,366.73 C646.93,367.14 653.48,368.06 654.96,368.97 C656.20,369.74 656.15,370.94 654.58,377.68 C653.57,381.98 652.25,386.47 651.63,387.66 C650.51,389.80 650.46,389.80 647.00,388.00 ZM 581.95 386.17 C572.61,380.22 565.54,369.36 564.33,359.10 C563.82,354.86 564.01,353.93 565.49,353.37 C567.52,352.58 575.36,353.92 586.70,356.98 L 594.68 359.13 L 591.29 373.32 C589.42,381.12 587.56,387.84 587.15,388.25 C586.73,388.67 584.39,387.73 581.95,386.17 ZM 541.36 380.61 C534.74,375.79 529.43,369.16 526.12,361.60 C523.51,355.63 522.26,346.58 523.90,345.56 C526.03,344.25 557.00,349.73 557.00,351.42 C557.00,351.60 556.35,353.32 555.55,355.22 C554.76,357.13 553.16,363.59 552.02,369.59 C549.10,384.81 549.05,385.00 548.18,385.00 C547.75,385.00 544.68,383.02 541.36,380.61 ZM 462.78 380.98 C454.42,375.44 447.55,361.91 449.39,354.60 C450.20,351.34 454.49,348.59 462.86,345.98 C470.08,343.73 476.83,343.39 477.54,345.25 C477.80,345.94 476.66,351.23 475.00,357.00 C473.35,362.77 471.45,371.21 470.80,375.75 C470.11,380.50 469.12,384.00 468.47,384.00 C467.85,384.00 465.29,382.64 462.78,380.98 ZM 506.28 380.03 C494.83,372.38 486.90,360.84 485.36,349.58 C484.46,343.05 485.95,341.99 495.94,342.03 C503.08,342.06 516.75,343.42 517.50,344.17 C517.69,344.36 517.22,347.21 516.45,350.51 C515.69,353.80 514.60,362.53 514.04,369.90 C513.49,377.27 512.86,383.47 512.66,383.67 C512.46,383.88 509.59,382.24 506.28,380.03 ZM 649.00 360.43 C634.06,358.52 616.01,354.75 589.25,347.96 C536.24,334.50 524.01,332.48 496.00,332.56 C471.86,332.62 465.87,333.83 449.33,341.99 C443.74,344.74 438.93,347.00 438.66,347.00 C435.46,347.00 434.59,319.27 437.38,306.38 C441.16,288.91 449.80,271.88 461.38,259.07 C472.56,246.71 486.59,236.23 502.95,228.03 C533.14,212.87 558.87,207.22 602.00,206.27 L 626.50 205.73 L 635.00 201.79 C656.01,192.04 663.00,190.49 686.00,190.53 C704.11,190.57 704.70,190.64 714.05,193.77 C732.02,199.79 751.29,215.55 763.84,234.50 C768.27,241.18 769.03,241.95 768.47,239.14 C766.92,231.42 760.97,220.56 753.18,211.20 C748.76,205.91 748.76,205.90 751.63,206.54 C776.70,212.11 797.64,230.01 810.24,256.63 C813.82,264.19 814.19,268.39 812.59,283.64 C811.74,291.71 811.75,291.79 814.33,293.48 C816.55,294.94 817.45,295.01 820.64,293.95 C824.06,292.82 824.51,292.91 826.17,294.96 C828.54,297.88 831.00,306.30 831.00,311.43 C830.99,316.70 827.89,321.73 823.51,323.56 C819.16,325.38 816.24,325.37 807.50,323.52 C797.56,321.41 786.50,321.59 781.33,323.94 C779.04,324.98 772.20,328.77 766.14,332.37 C723.61,357.62 689.97,365.67 649.00,360.43 ZM 705.13 344.57 C740.73,338.22 765.41,301.92 758.95,265.43 C756.08,249.25 750.46,239.10 737.09,225.96 C727.15,216.20 716.90,210.21 705.50,207.49 C696.41,205.32 679.54,205.27 671.41,207.39 C645.88,214.03 626.98,233.24 620.86,258.77 C619.14,265.92 618.87,269.40 619.33,278.00 C620.30,296.12 625.48,308.10 638.08,321.39 C656.15,340.46 680.67,348.93 705.13,344.57 ZM 484.17 282.25 C495.06,271.00 495.57,260.03 484.96,265.52 C481.08,267.53 477.90,273.97 477.25,281.18 C476.58,288.56 477.87,288.76 484.17,282.25 ZM 536.47 257.95 C542.10,255.60 545.93,253.17 549.63,249.57 C559.05,240.43 557.60,235.00 545.76,235.00 C542.44,235.00 537.99,235.52 535.86,236.16 C528.23,238.45 519.98,247.93 518.48,256.15 C517.23,263.02 522.92,263.59 536.47,257.95 Z" fill="rgb(254,254,253)"/>
</g>
</svg>